<?xml version="1.0" encoding="utf-8"?>
<!-- Generator: Adobe Illustrator 16.0.0, SVG Export Plug-In . SVG Version: 6.00 Build 0)  -->
<!DOCTYPE svg PUBLIC "-//W3C//DTD SVG 1.1//EN" "http://www.w3.org/Graphics/SVG/1.1/DTD/svg11.dtd">
<svg version="1.1" xmlns="http://www.w3.org/2000/svg" xmlns:xlink="http://www.w3.org/1999/xlink" x="0px" y="0px" width="401.5px"
	 height="130.334px" viewBox="0 0 401.5 130.334" enable-background="new 0 0 401.5 130.334" xml:space="preserve">
<g id="Layer_1" display="none">
	<rect x="1.18" y="2.258" display="inline" fill="#2B807D" width="399.632" height="126.742"/>
</g>
<g id="Layer_2">
	<g>
		<path fill="#E26525" d="M277.648,58.5h-14.961l-9.648-18.242c-0.365-0.677-0.742-1.927-1.133-3.75h-0.156
			c-0.183,0.859-0.612,2.162-1.289,3.906L240.773,58.5h-15.039l17.852-28.008L227.258,2.484h15.352l8.008,16.797
			c0.625,1.328,1.185,2.904,1.68,4.727h0.156c0.313-1.094,0.898-2.721,1.758-4.883l8.906-16.641h14.063l-16.797,27.773L277.648,58.5
			z"/>
	</g>
	<g>
		<path fill="#E26525" d="M273.898,129h-14.492l-8.711-14.414c-0.651-1.094-1.276-2.07-1.875-2.93
			c-0.6-0.859-1.205-1.595-1.816-2.207c-0.612-0.611-1.25-1.08-1.914-1.406c-0.664-0.325-1.387-0.488-2.168-0.488h-3.398V129
			h-12.617V72.984h20c13.594,0,20.391,5.078,20.391,15.234c0,1.953-0.3,3.757-0.898,5.41c-0.6,1.654-1.445,3.145-2.539,4.473
			s-2.416,2.475-3.965,3.438c-1.55,0.964-3.275,1.719-5.176,2.266v0.156c0.833,0.261,1.641,0.684,2.422,1.27s1.536,1.27,2.266,2.051
			c0.729,0.781,1.426,1.621,2.09,2.52s1.27,1.777,1.816,2.637L273.898,129z M239.523,82.438v15.586h5.469
			c2.708,0,4.883-0.781,6.523-2.344c1.666-1.588,2.5-3.555,2.5-5.898c0-4.896-2.93-7.344-8.789-7.344H239.523z"/>
		<path fill="#E26525" d="M324.797,104.742c0,16.823-7.839,25.234-23.516,25.234c-15.209,0-22.813-8.216-22.813-24.648V72.984
			h12.656v32.5c0,9.063,3.541,13.594,10.625,13.594c6.953,0,10.43-4.375,10.43-13.125V72.984h12.617V104.742z"/>
		<path fill="#E26525" d="M400.813,129h-12.461V95.484c0-3.619,0.156-7.617,0.469-11.992h-0.313
			c-0.651,3.438-1.237,5.912-1.758,7.422L373.625,129h-10.313l-13.359-37.695c-0.365-1.016-0.951-3.619-1.758-7.813h-0.352
			c0.338,5.521,0.508,10.365,0.508,14.531V129h-11.367V72.984h18.477l11.445,33.203c0.911,2.656,1.575,5.326,1.992,8.008h0.234
			c0.703-3.099,1.445-5.794,2.227-8.086l11.445-33.125h18.008V129z"/>
	</g>
</g>
<g id="Layer_4">
</g>
<g id="Layer_3">
	<g>
		<polygon fill="#E26525" points="1.18,128.293 29.569,128.293 29.569,79.338 70.438,79.338 70.438,56.311 29.569,56.311 
			29.569,25.374 74.042,25.374 74.042,2.258 1.18,2.258 		"/>
		<path fill="#E26525" d="M193.705,17.815C182.6,6.038,168.055,0.149,150.066,0.149c-19.043,0-34.336,6.152-45.878,18.457
			C92.644,30.911,86.874,47.025,86.874,66.945c0,18.868,5.683,34.176,17.051,45.924c11.367,11.748,26.073,17.621,44.121,17.621
			c18.516,0,33.531-6.064,45.045-18.193s17.27-28.094,17.27-47.9C210.359,45.12,204.809,29.592,193.705,17.815z M183.586,64.918
			c0,12.414-6.802,23.232-16.877,28.953l-0.003,0.006l-15.409,26.79l-15.631-25.853l-0.001-0.002
			c-11.042-5.417-18.646-16.766-18.646-29.895c0-1.216,0.069-2.414,0.196-3.596l-0.196-0.356l-5.686-36.404l26.062,9.667h0.005
			c3.967-1.67,8.326-2.594,12.901-2.594c4.639,0,9.056,0.952,13.068,2.666h0.006l23.517-9.739l-3.543,36.404l-0.003,0.007
			C183.498,62.268,183.586,63.582,183.586,64.918z"/>
		<path display="none" fill="#F5F5F5" d="M186.892,24.561L163.375,34.3h-0.006c-4.012-1.714-8.429-2.666-13.068-2.666
			c-4.575,0-8.934,0.924-12.901,2.594h-0.005l-26.062-9.667l5.686,36.404l0.196,0.356c-0.127,1.182-0.196,2.38-0.196,3.596
			c0,13.129,7.604,24.478,18.646,29.895l0.001,0.002l15.631,25.853l15.409-26.79l0.003-0.006
			c10.076-5.721,16.877-16.539,16.877-28.953c0-1.336-0.088-2.65-0.241-3.946l0.003-0.007L186.892,24.561z"/>
	</g>
</g>
</svg>
